<?xml version="1.0" encoding="UTF-8"?>
<svg width="241px" height="183px" viewBox="0 0 241 183" version="1.1" xmlns="http://www.w3.org/2000/svg" xmlns:xlink="http://www.w3.org/1999/xlink">
    <!-- Generator: Sketch 60.1 (88133) - https://sketch.com -->
    <title>cloud-240-ibm</title>
    <desc>Created with Sketch.</desc>
    <defs>
        <linearGradient x1="75.5863219%" y1="16.4887908%" x2="25.1436954%" y2="93.796613%" id="linearGradient-1">
            <stop stop-color="#50FFD2" offset="0%"></stop>
            <stop stop-color="#0064FF" offset="100%"></stop>
        </linearGradient>
    </defs>
    <g id="Final-Copy" stroke="none" stroke-width="1" fill="none" fill-rule="evenodd">
        <g id="WebsiteFull" transform="translate(-800.000000, -1859.000000)">
            <g id="cloud-240-ibm" transform="translate(805.000000, 1831.000000)">
                <rect id="Rectangle" x="0" y="0" width="240" height="240"></rect>
                <g id="IBMCloud" transform="translate(37.000000, 50.000000)" fill-rule="nonzero">
                    <path d="M0.324,132.3 L0.324,129.897 L3.69,129.897 L3.69,110.808 L0.324,110.808 L0.324,108.414 L9.9,108.414 L9.9,110.808 L6.561,110.808 L6.561,129.933 L9.9,129.933 L9.9,132.3 L0.324,132.3 Z M15.174,108.378 L25.011,108.378 C28.953,108.378 31.383,110.808 31.383,114.543 C31.383,118.143 29.088,119.376 27.513,119.619 L27.513,119.826 C30.3181666,120.101696 32.3956384,122.557977 32.202,125.37 C32.202,129.312 29.565,132.3 26.037,132.3 L15.174,132.3 L15.174,108.414 L15.174,108.378 Z M18.045,118.8 L24.669,118.8 C26.928,118.8 28.269,117.603 28.269,115.479 L28.269,114.3 C28.269,112.176 26.901,110.979 24.669,110.979 L18.045,110.979 L18.045,118.8 Z M18.045,129.834 L25.146,129.834 C27.612,129.834 29.115,128.538 29.115,126.135 L29.115,124.965 C29.115,122.571 27.612,121.266 25.146,121.266 L18.045,121.266 L18.045,129.834 Z M56.16,112.185 L55.989,112.185 L54,116.19 L48.276,126.612 L42.552,116.19 L40.5,112.221 L40.329,112.221 L40.329,132.3 L37.548,132.3 L37.548,108.414 L41.319,108.414 L48.177,121.302 L48.312,121.302 L55.206,108.414 L58.977,108.414 L58.977,132.3 L56.16,132.3 L56.16,112.185 Z M70.56,120.546 C70.56,112.446 74.709,108 81.153,108 C85.536,108 88.353,109.8 90.099,113.625 L85.599,115.947 C85.14208,113.869443 83.2189291,112.450157 81.099,112.626 C78.057,112.626 76.032,114.687 76.032,118.449 L76.032,122.292 C76.032,126.063 78.057,128.115 81.099,128.115 C83.3208616,128.133907 85.2779216,126.656881 85.869,124.515 L90.117,126.99 C88.317,130.59 85.491,132.714234 81.117,132.714234 C74.745,132.75 70.596,128.637 70.596,120.546 L70.56,120.546 Z M98.595,132.3 C95.139,132.3 93.564,130.554 93.564,127.359 L93.564,106.974 L98.631,106.974 L98.631,128.394 L100.899,128.394 L100.899,132.3 L98.595,132.3 Z M102.816,123.3 C102.816,117.513 105.966,113.913 111.249,113.913 C116.532,113.913 119.682,117.513 119.682,123.3 C119.682,129.087 116.532,132.732 111.249,132.732 C105.966,132.732 102.816,129.114 102.816,123.3 Z M114.399,125.154 L114.399,121.5 C114.399,119.232 113.238,117.9 111.249,117.9 C109.26,117.9 108.099,119.196 108.099,121.5 L108.099,125.163 C108.099,127.431 109.26,128.763 111.249,128.763 C113.238,128.763 114.399,127.431 114.399,125.172 L114.399,125.154 Z M133.902,129.303 L133.731,129.303 C133.059949,131.484235 130.966276,132.90868 128.691,132.732 C125.028,132.732 123.075,130.158 123.075,125.631 L123.075,114.345 L128.142,114.345 L128.142,125.208 C128.142,127.404 128.862,128.637 130.716,128.637 C132.291,128.637 133.902,127.737 133.902,126.027 L133.902,114.327 L138.978,114.327 L138.978,132.327 L133.902,132.327 L133.902,129.312 L133.902,129.303 Z M154.746,129.303 L154.575,129.303 C153.911922,131.398058 151.938488,132.798205 149.742,132.732 C145.179,132.732 142.821,129.402 142.821,123.3 C142.821,117.198 145.188,113.913 149.742,113.913 C151.943165,113.83122 153.925078,115.237382 154.575,117.342 L154.746,117.342 L154.746,106.974 L159.822,106.974 L159.822,132.3 L154.746,132.3 L154.746,129.303 Z M154.746,125.973 L154.746,120.663 C154.746,119.016 153.342,118.026 151.425,118.026 C149.508,118.026 148.095,119.493 148.095,121.761 L148.095,124.875 C148.095,127.143 149.499,128.619 151.425,128.619 C153.351,128.619 154.746,127.638 154.746,126 L154.746,125.973 Z" id="IBM_Cloud" fill="#231F20"></path>
                    <g id="Layer_2" transform="translate(30.600000, 0.000000)" fill="url(#linearGradient-1)">
                        <path d="M13.653,35.1 C13.3371999,35.0969761 13.0274069,35.0133319 12.753,34.857 L4.032,29.817 C3.22608969,29.3708803 2.84888915,28.4165629 3.132,27.54 C3.47902967,26.579629 4.53729905,26.0806731 5.499,26.424 C5.60449313,26.4572583 5.70455278,26.505772 5.796,26.568 L14.526,31.608 C15.3826565,32.1063446 15.7182332,33.1755076 15.3,34.074 C14.9864976,34.6974822 14.3508332,35.0934698 13.653,35.1 Z M28.728,19.9800407 C28.0724363,19.9843347 27.4633219,19.6421356 27.126,19.08 L22.095,10.359 C21.6149703,9.57251628 21.7623788,8.55577596 22.446,7.938 C22.8142653,7.60965069 23.3011682,7.44686141 23.7928645,7.48769432 C24.2845608,7.52852723 24.7379413,7.76940234 25.047,8.154 C25.1201212,8.23855468 25.186334,8.32884489 25.245,8.424 L30.276,17.1 C30.7931191,17.9417007 30.5822647,19.0389246 29.79,19.629 C29.4797799,19.8509779 29.1094014,19.9733911 28.728,19.9800407 Z M47.475,12.492 L47.475,2.592 C47.4578697,1.56180575 48.2474834,0.697178822 49.275,0.621 C49.7704847,0.599089789 50.253925,0.777590109 50.6162804,1.11623998 C50.9786358,1.45488985 51.1893874,1.92516707 51.201,2.421 C51.201,2.421 51.201,2.475 51.201,2.502 L51.201,12.6 C51.201,13.6239359 50.3709359,14.454 49.347,14.454 L49.266,14.454 C48.2455622,14.3735165 47.4623531,13.5155287 47.475,12.492 L47.475,12.492 Z M69.921,19.9800274 C69.5437779,19.9820814 69.175435,19.8655969 68.868,19.647 C68.0754593,19.0476081 67.8723049,17.9419794 68.4,17.1 L73.431,8.388 C73.9442607,7.50566862 75.0719685,7.20066581 75.96,7.704 C76.0542017,7.76407037 76.1443925,7.83021026 76.23,7.902 C76.9102819,8.52155282 77.0573232,9.53576093 76.581,10.323 L71.541,19.044 C71.2095661,19.6255715 70.590375,19.9833264 69.921,19.9800274 L69.921,19.9800274 Z M84.996,35.1000236 C84.3111992,35.0989008 83.6822047,34.7221953 83.358,34.119 C82.9160141,33.202083 83.267701,32.0996038 84.159,31.608 L92.817,26.613 C93.5943571,26.1331324 94.6041122,26.2811792 95.211,26.964 C95.541422,27.3299219 95.7072857,27.8153605 95.6698624,28.306967 C95.632439,28.7985735 95.3950048,29.2533113 95.013,29.565 C94.9307033,29.6409083 94.8401347,29.7073253 94.743,29.763 L85.923,34.857 C85.6406357,35.0178403 85.3209562,35.1016398 84.996,35.1000236 L84.996,35.1000236 Z M25.875,77.256 C17.120214,68.556378 13.9222203,55.7139361 17.5749048,43.924636 C21.2275893,32.1353358 31.1263233,23.3506593 43.2661488,21.1248247 C55.4059742,18.8989901 67.7773868,23.6004397 75.375,33.327 C75.942,34.047 76.482,34.803 76.977,35.559 L73.899,37.593 C73.458,36.918 72.999,36.252 72.468,35.613 C65.7358429,26.9144528 54.7192438,22.6897362 43.8971042,24.6564484 C33.0749646,26.6231605 24.2491976,34.4538389 21.0080016,44.964848 C17.7668055,55.475857 20.6498476,66.9170875 28.485,74.637 L25.875,77.256 Z M72.963,86.967 L21.933,86.967 C16.2473025,86.9265888 10.8109577,84.6272624 6.82181328,80.5756557 C2.8326689,76.5240491 0.618076213,71.0526392 0.665238091,65.367 L0.665238091,65.367 L4.356,65.367 C4.30804456,70.0747019 6.13537062,74.6079908 9.43471129,77.9664292 C12.734052,81.3248676 17.2341886,83.2323787 21.942,83.268 L72.945,83.268 C81.4986264,83.31241 89.2726802,78.3050847 92.7696249,70.4988132 C96.2665696,62.6925417 94.8275582,53.558076 89.1,47.205 L91.8,44.739 C98.4561584,52.190329 100.113352,62.8569359 96.0316958,71.9765212 C91.95004,81.0961064 82.8913337,86.967 72.9,86.967 L72.963,86.967 Z M4.356,65.412 L0.666,65.412 C0.715393917,55.005283 8.24949102,46.1452152 18.513,44.424 L19.125,48.024 C10.6257972,49.4522962 4.3901745,56.7936875 4.356,65.412 Z M51.3,61.47 L47.601,61.47 C47.675429,51.0040797 54.1778335,41.6612079 63.9661952,37.9559413 C73.754557,34.2506746 84.8137992,36.9457962 91.8,44.739 L89.1,47.205 C83.1607588,40.4705228 73.6745379,38.1128261 65.2735548,41.2831971 C56.8725716,44.4535682 51.309164,52.4907079 51.3,61.47 L51.3,61.47 Z" id="Shape"></path>
                    </g>
                </g>
            </g>
        </g>
    </g>
</svg>