<svg class="animated" id="freepik_stories-low-code-development" xmlns="http://www.w3.org/2000/svg" viewBox="0 0 500 500" version="1.1" xmlns:xlink="http://www.w3.org/1999/xlink" xmlns:svgjs="http://svgjs.com/svgjs"><style>svg#freepik_stories-low-code-development:not(.animated) .animable {opacity: 0;}svg#freepik_stories-low-code-development.animated #freepik--Window--inject-576 {animation: 3s Infinite  linear floating;animation-delay: 0s;}svg#freepik_stories-low-code-development.animated #freepik--Image--inject-576 {animation: 3s Infinite  linear floating;animation-delay: 0s;}svg#freepik_stories-low-code-development.animated #freepik--Text--inject-576 {animation: 3s Infinite  linear floating;animation-delay: 0s;}svg#freepik_stories-low-code-development.animated #freepik--Code--inject-576 {animation: 3s Infinite  linear floating;animation-delay: 0s;}            @keyframes floating {                0% {                    opacity: 1;                    transform: translateY(0px);                }                50% {                    transform: translateY(-10px);                }                100% {                    opacity: 1;                    transform: translateY(0px);                }            }        </style><g id="freepik--Shadow--inject-576" class="animable" style="transform-origin: 250px 416.24px;"><ellipse id="freepik--path--inject-576" cx="250" cy="416.24" rx="193.89" ry="11.32" style="fill: rgb(245, 245, 245); transform-origin: 250px 416.24px;" class="animable"></ellipse></g><g id="freepik--Window--inject-576" class="animable" style="transform-origin: 239.195px 246.34px;"><rect x="123.29" y="161.16" width="231.81" height="170.36" style="fill: rgb(11, 230, 238); transform-origin: 239.195px 246.34px;" id="el9rgxgtyuce5" class="animable"></rect><g id="ellceze52yyfo"><rect x="123.29" y="161.16" width="231.81" height="170.36" style="fill: rgb(255, 255, 255); opacity: 0.7; transform-origin: 239.195px 246.34px;" class="animable"></rect></g><rect x="123.29" y="161.16" width="231.81" height="10.43" style="fill: rgb(11, 230, 238); transform-origin: 239.195px 166.375px;" id="eldkmnkywx1pm" class="animable"></rect><g id="elo19yo7win2p"><circle cx="348.69" cy="166.38" r="2.81" style="fill: rgb(255, 255, 255); opacity: 0.7; transform-origin: 348.69px 166.38px;" class="animable"></circle></g><g id="elw6s1uugjsxk"><circle cx="340.49" cy="166.38" r="2.81" style="fill: rgb(255, 255, 255); opacity: 0.7; transform-origin: 340.49px 166.38px;" class="animable"></circle></g><g id="elprzduqe79g"><circle cx="332.29" cy="166.38" r="2.81" style="fill: rgb(255, 255, 255); opacity: 0.7; transform-origin: 332.29px 166.38px;" class="animable"></circle></g><g id="eliqk4e0x5yb"><rect x="125.24" y="174.72" width="71.25" height="152.35" style="isolation: isolate; opacity: 0.1; transform-origin: 160.865px 250.895px;" class="animable"></rect></g><g id="elst4ulwac43"><rect x="198.49" y="174.72" width="155.16" height="152.35" style="isolation: isolate; opacity: 0.1; transform-origin: 276.07px 250.895px; transform: rotate(180deg);" class="animable"></rect></g></g><g id="freepik--Image--inject-576" class="animable" style="transform-origin: 274.45px 217.04px;"><g id="elhte2dreruu5"><rect x="229.69" y="186.2" width="93.46" height="66.61" style="isolation: isolate; opacity: 0.2; transform-origin: 276.42px 219.505px;" class="animable"></rect></g><rect x="225.75" y="181.27" width="93.46" height="66.61" style="fill: rgb(11, 230, 238); transform-origin: 272.48px 214.575px;" id="el0d1a6xxhd01d" class="animable"></rect><g id="el9oqdlhii0ac"><rect x="225.75" y="181.27" width="93.47" height="66.61" style="fill: rgb(255, 255, 255); opacity: 0.5; transform-origin: 272.485px 214.575px;" class="animable"></rect></g><g id="eltyv7ix5s0a"><rect x="227.13" y="193.5" width="90.7" height="52.99" style="fill: rgb(255, 255, 255); opacity: 0.7; transform-origin: 272.48px 219.995px;" class="animable"></rect></g><rect x="225.75" y="181.27" width="93.46" height="10.43" style="fill: rgb(11, 230, 238); transform-origin: 272.48px 186.485px;" id="elcfiuprex2kn" class="animable"></rect><g id="eljquno7y3eml"><circle cx="312.81" cy="186.49" r="2.81" style="fill: rgb(255, 255, 255); opacity: 0.7; transform-origin: 312.81px 186.49px;" class="animable"></circle></g><g id="elvpqp5origxk"><circle cx="304.61" cy="186.49" r="2.81" style="fill: rgb(255, 255, 255); opacity: 0.7; transform-origin: 304.61px 186.49px;" class="animable"></circle></g><g id="eliffvr9meiqd"><path d="M299.21,186.49a2.81,2.81,0,1,1-2.81-2.81A2.8,2.8,0,0,1,299.21,186.49Z" style="fill: rgb(255, 255, 255); opacity: 0.7; transform-origin: 296.4px 186.49px;" class="animable"></path></g><g id="el4fgtlgqvk8c"><polygon points="227.13 233.29 252.89 217.82 271.68 228.08 300.46 209.91 317.83 222.86 317.83 246.49 227.13 246.49 227.13 233.29" style="fill: rgb(11, 230, 238); opacity: 0.2; transform-origin: 272.48px 228.2px;" class="animable"></polygon></g><path d="M253.41,207.59a7,7,0,1,1-7-7A7,7,0,0,1,253.41,207.59Z" style="fill: rgb(255, 255, 255); transform-origin: 246.41px 207.59px;" id="elhxgmo0z6ru6" class="animable"></path><g id="elpcfti5qzfz9"><rect x="225.75" y="239.48" width="9.92" height="8.4" style="isolation: isolate; opacity: 0.2; transform-origin: 230.71px 243.68px;" class="animable"></rect></g></g><g id="freepik--Text--inject-576" class="animable" style="transform-origin: 292.13px 318.705px;"><g id="el3jd4xqr7mnp"><rect x="242.99" y="284.23" width="93.46" height="47.03" style="isolation: isolate; opacity: 0.2; transform-origin: 289.72px 307.745px;" class="animable"></rect></g><rect x="247.81" y="286.57" width="93.46" height="66.61" style="fill: rgb(11, 230, 238); transform-origin: 294.54px 319.875px;" id="elmzu4hf642z" class="animable"></rect><g id="elrndpvihmwba"><rect x="247.81" y="286.57" width="93.46" height="66.61" style="fill: rgb(255, 255, 255); opacity: 0.5; transform-origin: 294.54px 319.875px;" class="animable"></rect></g><g id="eldlqvvs4npu"><rect x="249.19" y="298.8" width="90.7" height="52.99" style="fill: rgb(255, 255, 255); opacity: 0.7; transform-origin: 294.54px 325.295px;" class="animable"></rect></g><path d="M289.72,306.23l-7.19,21.68h-4.27l-5.36-16-5.45,16h-4.3L256,306.23h4.18l5.39,16.47,5.61-16.47h3.71l5.48,16.57,5.55-16.57Z" style="fill: rgb(38, 50, 56); transform-origin: 272.86px 317.07px;" id="elq7r5c39gco" class="animable"></path><rect x="247.81" y="286.57" width="93.46" height="10.43" style="fill: rgb(11, 230, 238); transform-origin: 294.54px 291.785px;" id="elsl9sxhmsh09" class="animable"></rect><g id="elou8sw6gfw9"><path d="M337.68,291.79a2.81,2.81,0,1,1-2.81-2.81A2.81,2.81,0,0,1,337.68,291.79Z" style="fill: rgb(255, 255, 255); opacity: 0.7; transform-origin: 334.87px 291.79px;" class="animable"></path></g><g id="elnoyxkqtapfl"><path d="M329.47,291.79a2.81,2.81,0,1,1-2.81-2.81A2.81,2.81,0,0,1,329.47,291.79Z" style="fill: rgb(255, 255, 255); opacity: 0.7; transform-origin: 326.66px 291.79px;" class="animable"></path></g><g id="elo4htfz6uolt"><path d="M321.27,291.79a2.81,2.81,0,1,1-2.81-2.81A2.81,2.81,0,0,1,321.27,291.79Z" style="fill: rgb(255, 255, 255); opacity: 0.7; transform-origin: 318.46px 291.79px;" class="animable"></path></g><rect x="293.99" y="306.73" width="39.13" height="1" style="fill: rgb(38, 50, 56); transform-origin: 313.555px 307.23px;" id="elx81na4jenj" class="animable"></rect><rect x="293.99" y="311.88" width="39.13" height="1" style="fill: rgb(38, 50, 56); transform-origin: 313.555px 312.38px;" id="eltjj0b0scbwj" class="animable"></rect><rect x="293.99" y="317.03" width="39.13" height="1" style="fill: rgb(38, 50, 56); transform-origin: 313.555px 317.53px;" id="elsw6lut1wm1" class="animable"></rect><rect x="293.99" y="322.18" width="39.13" height="1" style="fill: rgb(38, 50, 56); transform-origin: 313.555px 322.68px;" id="el616mi7maoss" class="animable"></rect><rect x="293.99" y="327.34" width="39.13" height="1" style="fill: rgb(38, 50, 56); transform-origin: 313.555px 327.84px;" id="el47jxq55b6u3" class="animable"></rect><rect x="255.96" y="332.49" width="77.15" height="1" style="fill: rgb(38, 50, 56); transform-origin: 294.535px 332.99px;" id="elxcplvu0g01d" class="animable"></rect><rect x="255.96" y="337.64" width="77.15" height="1" style="fill: rgb(38, 50, 56); transform-origin: 294.535px 338.14px;" id="ellz7rfdjcxem" class="animable"></rect><rect x="255.96" y="342.79" width="77.15" height="1" style="fill: rgb(38, 50, 56); transform-origin: 294.535px 343.29px;" id="else4sfaugc7t" class="animable"></rect></g><g id="freepik--Code--inject-576" class="animable animator-active" style="transform-origin: 185.555px 278.68px;"><g id="elquvzpnci8p"><rect x="136.82" y="248.88" width="93.46" height="66.61" style="isolation: isolate; opacity: 0.2; transform-origin: 183.55px 282.185px;" class="animable"></rect></g><rect x="140.83" y="241.87" width="93.46" height="66.61" style="fill: rgb(11, 230, 238); transform-origin: 187.56px 275.175px;" id="el5on7ly3b279" class="animable"></rect><g id="el1d8oi1yaujs"><rect x="140.83" y="241.87" width="93.46" height="66.61" style="fill: rgb(255, 255, 255); opacity: 0.5; transform-origin: 187.56px 275.175px;" class="animable"></rect></g><g id="elogad91y5k4n"><rect x="142.21" y="254.1" width="90.7" height="52.99" style="fill: rgb(255, 255, 255); opacity: 0.7; transform-origin: 187.56px 280.595px;" class="animable"></rect></g><path d="M177.14,274.76l-14.42,5.39,14.42,5.39v4.34l-19.26-7.47v-4.52l19.26-7.47Z" style="fill: rgb(38, 50, 56); transform-origin: 167.51px 280.15px;" id="el8wcbkon92jt" class="animable"></path><path d="M192.34,259.59H197L183.23,299h-4.67Z" style="fill: rgb(38, 50, 56); transform-origin: 187.78px 279.295px;" id="elf0yabi8tzdq" class="animable"></path><path d="M217.28,277.89v4.52L198,289.88v-4.34l14.42-5.39L198,274.76v-4.34Z" style="fill: rgb(38, 50, 56); transform-origin: 207.64px 280.15px;" id="elyxsuweocf4" class="animable"></path><rect x="140.83" y="241.87" width="93.46" height="10.43" style="fill: rgb(11, 230, 238); transform-origin: 187.56px 247.085px;" id="elx0l4a98i0qh" class="animable"></rect><g id="ely0mi8w5n07r"><path d="M230.69,247.09a2.81,2.81,0,1,1-2.8-2.81A2.8,2.8,0,0,1,230.69,247.09Z" style="fill: rgb(255, 255, 255); opacity: 0.7; transform-origin: 227.88px 247.09px;" class="animable"></path></g><g id="elh5sw4vk44ju"><path d="M222.49,247.09a2.81,2.81,0,1,1-2.81-2.81A2.81,2.81,0,0,1,222.49,247.09Z" style="fill: rgb(255, 255, 255); opacity: 0.7; transform-origin: 219.68px 247.09px;" class="animable"></path></g><g id="elc0bib2xk1jr"><path d="M214.29,247.09a2.81,2.81,0,1,1-2.81-2.81A2.81,2.81,0,0,1,214.29,247.09Z" style="fill: rgb(255, 255, 255); opacity: 0.7; transform-origin: 211.48px 247.09px;" class="animable"></path></g></g><g id="freepik--character-2--inject-576" class="animable" style="transform-origin: 361.06px 287.705px;"><path d="M335,180.78c.26.56.18,1.15-.19,1.32s-.86-.15-1.12-.7-.18-1.14.19-1.31S334.76,180.23,335,180.78Z" style="fill: rgb(38, 50, 56); transform-origin: 334.345px 181.095px;" id="eln36e9j6sydg" class="animable"></path><path d="M335.25,181.9a22,22,0,0,1-.44,6,3.54,3.54,0,0,0,2.89-.74Z" style="fill: rgb(222, 87, 83); transform-origin: 336.255px 184.93px;" id="eltoj0booij8" class="animable"></path><path d="M335.62,176.75a.36.36,0,0,0-.15-.64,3.58,3.58,0,0,0-3.17.86.36.36,0,0,0,.52.5h0a2.86,2.86,0,0,1,2.52-.65A.35.35,0,0,0,335.62,176.75Z" style="fill: rgb(38, 50, 56); transform-origin: 333.981px 176.805px;" id="elhcxzphzju49" class="animable"></path><path d="M352.45,175.5c2.69,5,8.32,13.53,13.68,13.92,0,0,2.41,5.32-5.56,11.88-8.76,7.22-7.77-.9-7.77-.9,3.84-5.08.8-8.53-2.78-11.18Z" style="fill: rgb(228, 137, 123); transform-origin: 358.246px 189.896px;" id="elcdtfnh6hswv" class="animable"></path><path d="M353,171c2.76,7,4.74,11,2.92,16.08-2.72,7.68-12.59,8.49-17.39,2.44-4.33-5.44-8.12-16-2.71-21.82A10.28,10.28,0,0,1,353,171Z" style="fill: rgb(228, 137, 123); transform-origin: 344.886px 178.947px;" id="eln6xzkfdlm8e" class="animable"></path><path d="M357.36,182.5c-1.43,3.27-14,5.22-17.5-3.37,0,0-6.53-1.6-9.53-6.48s-1.15-9,2.93-10.44c3.59-1.32,4.7.36,4.7.36s15.17-8.68,16.39-.81C364.61,163.75,359.16,178.43,357.36,182.5Z" style="fill: rgb(38, 50, 56); transform-origin: 344.635px 171.87px;" id="el8c5mwisw2uu" class="animable"></path><path d="M343.21,178.58a8.56,8.56,0,0,1,.24,5.47c-.72,2.36-2.77,2.07-4,.19-1.1-1.69-2.05-5-.65-6.74S342.37,176.49,343.21,178.58Z" style="fill: rgb(228, 137, 123); transform-origin: 340.943px 181.13px;" id="el8e7ags70jj" class="animable"></path><path d="M368.46,189.91c-1-3-2.18-6.43-5.79-5.23-3.17,1-12.42,6.76-13.13,8.74a8.77,8.77,0,0,1,2.38,3.75Z" style="fill: rgb(11, 230, 238); transform-origin: 359px 190.802px;" id="elpkm1fcruegl" class="animable"></path><g id="el0yphvf6l3ap"><path d="M368.46,189.91c-1-3-2.18-6.43-5.79-5.23-3.17,1-12.42,6.76-13.13,8.74a8.77,8.77,0,0,1,2.38,3.75Z" style="fill: rgb(250, 250, 250); opacity: 0.5; transform-origin: 359px 190.802px;" class="animable"></path></g><path d="M382.37,189.22a130.34,130.34,0,0,1,13.5,6.84,98.38,98.38,0,0,1,12.72,8.64,31.33,31.33,0,0,1,3.07,3c.91,1,1.73,2,2.56,2.94,1.61,2,3.12,4,4.6,6,2.92,4,5.63,8.15,8.16,12.44l-4.19,3.16-10.08-10.49c-1.67-1.74-3.36-3.44-5-5.09-.84-.81-1.68-1.62-2.52-2.36a28.42,28.42,0,0,0-2.37-1.94c-1.81-1.23-3.84-2.47-5.84-3.64s-4.08-2.3-6.18-3.41c-4.17-2.18-8.5-4.34-12.69-6.31Z" style="fill: rgb(220, 137, 124); transform-origin: 402.545px 210.73px;" id="elo0w7qidc3q" class="animable"></path><path d="M426.76,241.25l-2.53-4.51L432,234.4s1.56,3.64-.15,6.57Z" style="fill: rgb(228, 137, 123); transform-origin: 428.44px 237.825px;" id="elsjmkzq76t9n" class="animable"></path><polygon points="421.38 230.13 426.34 228.52 431.97 234.4 424.23 236.74 421.38 230.13" style="fill: rgb(228, 137, 123); transform-origin: 426.675px 232.63px;" id="el5xvwaub8jia" class="animable"></polygon><path d="M377.19,186.44c6.26-2.47,20.19,8.28,20.19,8.28l-5.18,15.73a28.7,28.7,0,0,1-13.08-6.71C372.29,197.77,370.78,189,377.19,186.44Z" style="fill: rgb(38, 50, 56); transform-origin: 385.243px 198.261px;" id="el2lkzdrjlkld" class="animable"></path><g id="el4n6necbnmw4"><path d="M386.26,198.26c4,3.37,6.17,6.1,6.17,11.49l-.23.7a28.76,28.76,0,0,1-13.09-6.71c-.4-.36-.79-.73-1.16-1.1Z" style="opacity: 0.2; transform-origin: 385.19px 204.355px;" class="animable"></path></g><path d="M402.3,246.24l-39.69,7.11C361,250,357.56,238,351,223.51c-1.77-3.93-3.78-8-6-12.2a155.12,155.12,0,0,0-8.31-13.64,105.48,105.48,0,0,1,12.67-3.84c5-1.12,20.67-7.12,25.27-7.57,6.08-.58,6.75,2.07,6.75,2.07S389.53,196.9,402.3,246.24Z" style="fill: rgb(38, 50, 56); transform-origin: 369.495px 219.764px;" id="elwr0dkbsib9n" class="animable"></path><g id="elpxzyca7dio"><path d="M351,223.51c-1.77-3.93-3.78-8-6-12.2l2.58-1.61S353.58,218.77,351,223.51Z" style="opacity: 0.2; transform-origin: 348.322px 216.605px;" class="animable"></path></g><path d="M301.79,217.77l-5.12-.76.59,8.07s4,.16,6.09-2.49Z" style="fill: rgb(228, 137, 123); transform-origin: 300.01px 221.046px;" id="elqgpkl6vjyq" class="animable"></path><polygon points="289.47 216.43 291.36 223.36 297.26 225.08 296.68 217.01 289.47 216.43" style="fill: rgb(228, 137, 123); transform-origin: 293.365px 220.755px;" id="eli1wt3hvkfi8" class="animable"></polygon><path d="M343,206.21c-.13.79-.25,1.37-.38,2s-.28,1.28-.44,1.92c-.31,1.27-.64,2.52-1,3.78a60.6,60.6,0,0,1-2.73,7.44,44.64,44.64,0,0,1-4,7.22,25.28,25.28,0,0,1-6.4,6.46,17.46,17.46,0,0,1-4.58,2.19l-.63.17-.32.09-.49.1a9.25,9.25,0,0,1-1.84.13,10.84,10.84,0,0,1-2.94-.47,20.24,20.24,0,0,1-4.28-1.9,31.86,31.86,0,0,1-3.42-2.3,62.72,62.72,0,0,1-10.88-10.84l3.69-3.74a124.42,124.42,0,0,0,11.73,7.62c1,.53,2,1,2.89,1.39a10.49,10.49,0,0,0,2.51.76,1.82,1.82,0,0,0,.67,0c.05,0,0,0,0,0h-.05l.12-.05a2.34,2.34,0,0,0,.24-.09,7.87,7.87,0,0,0,1.91-1.12,16.21,16.21,0,0,0,3.54-4.14,34.71,34.71,0,0,0,2.85-5.65,66.09,66.09,0,0,0,2.21-6.31q.49-1.62.9-3.27l.39-1.64c.12-.52.25-1.13.34-1.55Z" style="fill: rgb(220, 137, 124); transform-origin: 320.835px 221.062px;" id="elf1wz02q3k8n" class="animable"></path><path d="M348.73,205.71c4.55,8.51-9.54,21.71-9.54,21.71l-13.95-9.69a91.48,91.48,0,0,1,7.44-16C338.26,192.58,345.26,199.23,348.73,205.71Z" style="fill: rgb(38, 50, 56); transform-origin: 337.437px 212.332px;" id="el78kn98f1w7r" class="animable"></path><g id="freepik--group--inject-576" class="animable" style="transform-origin: 370.157px 330.71px;"><polygon points="345.28 409.5 337.17 410.35 336.76 405.65 335.65 392.86 343.76 392 344.99 406.13 345.28 409.5" style="fill: rgb(228, 137, 123); transform-origin: 340.465px 401.175px;" id="el5nqqwkev9wn" class="animable"></polygon><polygon points="415.76 408.47 407.9 408.47 407.51 406.7 407.46 406.48 405.01 395.13 404.96 394.9 404.02 390.55 411.89 390.55 415.76 408.47" style="fill: rgb(228, 137, 123); transform-origin: 409.89px 399.51px;" id="elr7mrbry4bd" class="animable"></polygon><g id="el7rpd85h1z3e"><polygon points="343.76 392 344.99 406.13 336.76 405.65 335.65 392.86 343.76 392" style="isolation: isolate; opacity: 0.2; transform-origin: 340.32px 399.065px;" class="animable"></polygon></g><g id="elgtk3gnom2qj"><polygon points="415.53 407.48 415.52 407.48 407.47 406.48 407.46 406.48 405.08 395.53 405.09 395.53 413.08 396.15 415.46 407.13 415.53 407.48" style="isolation: isolate; opacity: 0.2; transform-origin: 410.305px 401.505px;" class="animable"></polygon></g><path d="M406.81,408h9.55a.68.68,0,0,1,.67.54l1.55,7a1.18,1.18,0,0,1-1.15,1.4c-3.09-.05-5.34-.24-9.22-.24-2.39,0-9.6.25-12.9.25s-3.73-3.26-2.38-3.56c6.06-1.32,10.62-3.15,12.56-4.89A1.89,1.89,0,0,1,406.81,408Z" style="fill: rgb(38, 50, 56); transform-origin: 405.407px 412.475px;" id="elfd7121nwxe5" class="animable"></path><path d="M336.31,407.75h9.55a.68.68,0,0,1,.67.54l1.55,7a1.18,1.18,0,0,1-1.15,1.4c-3.09-.05-5.34-.24-9.22-.24-2.39,0-9.6.25-12.9.25s-3.73-3.26-2.38-3.56c6.06-1.32,10.62-3.15,12.56-4.89A1.89,1.89,0,0,1,336.31,407.75Z" style="fill: rgb(38, 50, 56); transform-origin: 334.907px 412.225px;" id="eleucprp3x65" class="animable"></path><path d="M334.91,402.47l11.6.38c-4.22-77.56-6.19-81.52,31.45-118.15.88,11.08,1.87,22.57,2.84,32.15.61,5.93.8,11.11,1.78,14.91,6.7,25.69,22.83,71.15,22.83,71.15l11.32.51s-14.17-62.31-15.63-82.62c-1.91-26.64,4.31-55.48.77-76.33l-39.54,6.71C326.47,303.66,319.9,315,334.91,402.47Z" style="fill: rgb(11, 230, 238); transform-origin: 372.054px 323.945px;" id="eltxa293bsgx" class="animable"></path><g id="elmo8gqiaezwg"><path d="M334.91,402.47l11.6.38c-4.22-77.56-6.19-81.52,31.45-118.15.88,11.08,1.87,22.57,2.84,32.15.61,5.93.8,11.11,1.78,14.91,6.7,25.69,22.83,71.15,22.83,71.15l11.32.51s-14.17-62.31-15.63-82.62c-1.91-26.64,4.31-55.48.77-76.33l-39.54,6.71C326.47,303.66,319.9,315,334.91,402.47Z" style="fill: rgb(255, 255, 255); opacity: 0.3; transform-origin: 372.054px 323.945px;" class="animable"></path></g><g id="elajah2i9odbf"><path d="M378,284.65c.88,11.08,1.87,22.6,2.84,32.18C382.22,303,384,293.14,384,293.14s1.63-1.34,6.11-8.49,0-20.5,0-20.5C390.21,276.55,378,284.65,378,284.65Z" style="isolation: isolate; opacity: 0.2; transform-origin: 385.051px 290.49px;" class="animable"></path></g><polygon points="333.61 401.22 334.18 404.47 347.8 404.47 347.8 401.47 333.61 401.22" style="fill: rgb(11, 230, 238); transform-origin: 340.705px 402.845px;" id="elzuyig3lm29" class="animable"></polygon><polygon points="404.07 402.47 405.38 405.47 417.78 405.47 417.55 402.47 404.07 402.47" style="fill: rgb(11, 230, 238); transform-origin: 410.925px 403.97px;" id="el5sxgpy0olyb" class="animable"></polygon><g id="eltft15kj5qcc"><polygon points="333.61 401.22 334.18 404.47 347.8 404.47 347.8 401.47 333.61 401.22" style="fill: rgb(255, 255, 255); opacity: 0.7; transform-origin: 340.705px 402.845px;" class="animable"></polygon></g><g id="el12r91vcvbe9g"><polygon points="404.07 402.47 405.38 405.47 417.78 405.47 417.55 402.47 404.07 402.47" style="fill: rgb(255, 255, 255); opacity: 0.7; transform-origin: 410.925px 403.97px;" class="animable"></polygon></g></g></g><g id="freepik--character-1--inject-576" class="animable" style="transform-origin: 130.981px 353.192px;"><path d="M111,321l2.9.23c1,.07,2,.11,3,.14,2,.08,4,.09,6,.06s4-.18,5.9-.37a48.77,48.77,0,0,0,5.66-.94l-.85.35c.36-.21.66-.33,1.08-.61s.8-.49,1.23-.81c.84-.58,1.69-1.23,2.55-1.88,1.71-1.34,3.44-2.72,5.15-4.14l5.16-4.29,5.19-4.31a2.4,2.4,0,0,1,3.45,3.28c-1.38,1.86-2.83,3.61-4.28,5.39s-3,3.47-4.54,5.17-3.17,3.37-4.87,5c-.87.81-1.74,1.62-2.68,2.43-.44.4-1,.8-1.5,1.19s-1.19.82-1.78,1.21a2.47,2.47,0,0,1-.49.24l-.36.11a48.42,48.42,0,0,1-6.81,1.7,63.36,63.36,0,0,1-6.79.79c-2.25.15-4.5.18-6.74.13q-1.68-.06-3.36-.18c-1.14-.07-2.2-.17-3.45-.34a4.8,4.8,0,0,1,1-9.55Z" style="fill: rgb(206, 122, 99); transform-origin: 131.676px 317.493px;" id="elmilws65gq2r" class="animable"></path><path d="M124.08,335.5l-3.26.81-4.25,1s-.9-.82-2.26-2.09c-3.43-3.19-9.77-9.24-11.83-12.1,5.83-3.8,8.54-2.3,19.74-2.2C125.05,324.22,124.08,335.5,124.08,335.5Z" style="fill: rgb(11, 230, 238); transform-origin: 113.36px 328.928px;" id="el6u6iyuujie8" class="animable"></path><g id="eldomanxfy8jk"><path d="M120.82,336.31l-4.25,1s-.9-.82-2.26-2.09a32,32,0,0,1-.09-4.74A15.3,15.3,0,0,1,120.82,336.31Z" style="opacity: 0.2; transform-origin: 117.496px 333.895px;" class="animable"></path></g><path d="M79.5,289.81s4.38-8.1,16.17-7.33,16.07,20.46,12.23,28.9a105.05,105.05,0,0,0-25.39,8.72s-8.71-12.92-8.12-21.9S79.5,289.81,79.5,289.81Z" style="fill: rgb(38, 50, 56); transform-origin: 91.8157px 301.264px;" id="elcckamwprim" class="animable"></path><path d="M120.74,370.41l4.78,8.38c12.81-3,53.88-9.25,58.93,4.84,6.27,17.51-39,31.47-64.1,32.33s-46.94-5.12-31.09-41.67Z" style="fill: rgb(38, 50, 56); transform-origin: 134.461px 393.223px;" id="elfp8ziefb0n6" class="animable"></path><g id="eler1fhygf2nj"><path d="M120.74,370.41l4.78,8.38c12.81-3,53.88-9.25,58.93,4.84,6.27,17.51-39,31.47-64.1,32.33s-46.94-5.12-31.09-41.67Z" style="isolation: isolate; opacity: 0.2; transform-origin: 134.461px 393.223px;" class="animable"></path></g><path d="M177.19,408.39a.19.19,0,0,1-.19,0,.14.14,0,0,1,0-.16c.08-.28.91-2.69,1.75-2.94a.54.54,0,0,1,.5.14.87.87,0,0,1,.3.81,2.28,2.28,0,0,1-.79,1.14A9.26,9.26,0,0,1,177.19,408.39Zm.21-.47a3.57,3.57,0,0,0,1.79-1.72.56.56,0,0,0-.21-.55.19.19,0,0,0-.2-.06.62.62,0,0,0-.19.12A7,7,0,0,0,177.4,407.92Z" style="fill: rgb(38, 50, 56); transform-origin: 178.268px 406.846px;" id="elrw84uu0hlq" class="animable"></path><path d="M177.14,408.42a.13.13,0,0,1-.15-.05c-.08-.07-1.24-1.53-1.05-2.51a1,1,0,0,1,.4-.61.54.54,0,0,1,.67-.06c.61.43.53,2.38.23,3.12l0,.08A.19.19,0,0,1,177.14,408.42Zm-.65-2.87a.64.64,0,0,0-.21.35,3.41,3.41,0,0,0,.78,2c.19-.83.13-2.2-.23-2.45,0,0-.11-.08-.29.05l0,0Z" style="fill: rgb(38, 50, 56); transform-origin: 176.694px 406.764px;" id="elt447c6j21o" class="animable"></path><path d="M133.11,412.49a.19.19,0,0,1,.17-.08.13.13,0,0,1,.11.12c.07.28.51,2.79-.1,3.42a.53.53,0,0,1-.51.12.86.86,0,0,1-.65-.57,2.22,2.22,0,0,1,.13-1.37A10.19,10.19,0,0,1,133.11,412.49Zm0,.51a3.56,3.56,0,0,0-.73,2.37.52.52,0,0,0,.45.38.17.17,0,0,0,.2,0,.55.55,0,0,0,.12-.19A6.89,6.89,0,0,0,133.15,413Z" style="fill: rgb(38, 50, 56); transform-origin: 132.843px 414.25px;" id="elmrmfsqsbgh" class="animable"></path><polygon points="149.53 399.81 139.21 403.48 134.26 405.25 135.53 410.67 140.32 409.64 152.04 407.15 149.53 399.81" style="fill: rgb(235, 179, 118); transform-origin: 143.15px 405.24px;" id="elnpikrhp2qo" class="animable"></polygon><path d="M136.88,410.92l-.87-6.39a.64.64,0,0,0-.74-.55l-3.15.53s-4.3.4-5.15,1.5c-2.49,3.22-.93,17.42.73,17.92.61.18,1.25-.66,1.51-1.23.84-1.83,2.32-6.61,3-8.13.84-1.77,3.15-2.64,4.19-2.95A.64.64,0,0,0,136.88,410.92Z" style="fill: rgb(11, 230, 238); transform-origin: 131.277px 413.963px;" id="elwen8azou0m" class="animable"></path><path d="M133.14,412.45a.14.14,0,0,1,.16,0c.1,0,1.82.74,2.13,1.69a.93.93,0,0,1-.06.73.54.54,0,0,1-.55.38c-.74-.09-1.62-1.83-1.72-2.62l0-.08S133.11,412.46,133.14,412.45Zm2,2.18a.61.61,0,0,0,0-.4c-.2-.6-1.16-1.14-1.65-1.38.23.82.95,2,1.38,2,0,0,.14,0,.23-.18l0-.07Z" style="fill: rgb(38, 50, 56); transform-origin: 134.289px 413.838px;" id="elqgfgdrwalqb" class="animable"></path><g id="elgsf1qaflcyh"><polygon points="149.53 399.81 139.21 403.48 140.32 409.64 152.04 407.15 149.53 399.81" style="isolation: isolate; opacity: 0.2; transform-origin: 145.625px 404.725px;" class="animable"></polygon></g><polygon points="142.15 410.57 145.12 410.79 143.13 400.58 139.77 402.44 142.15 410.57" style="fill: rgb(11, 230, 238); transform-origin: 142.445px 405.685px;" id="el9r8mbsquigk" class="animable"></polygon><g id="elk85qx48yurl"><polygon points="142.15 410.57 145.12 410.79 143.13 400.58 139.77 402.44 142.15 410.57" style="fill: rgb(255, 255, 255); isolation: isolate; opacity: 0.6; transform-origin: 142.445px 405.685px;" class="animable"></polygon></g><g id="eli8uf6r91l3n"><path d="M99.12,370.91,114.57,388s17.08-.37,37.82,9.76c0,0,22.26-9.19,24.3-16.83,2.68-10-51.17-2.18-51.17-2.18Z" style="isolation: isolate; opacity: 0.2; transform-origin: 137.953px 384.335px;" class="animable"></path></g><path d="M126.14,374.73l-1.92-1.38a2.74,2.74,0,0,0-2.49-.38l-3.94,1.33a5.13,5.13,0,0,0-3.28,3.38l-.3,1c3,2.51,8.15,3,8.15,3l1.44.3a2.29,2.29,0,0,0,2.77-1.72l.64-2.85A2.65,2.65,0,0,0,126.14,374.73Z" style="fill: rgb(206, 122, 99); transform-origin: 120.735px 377.435px;" id="eldfd60gjxter" class="animable"></path><path d="M166.86,380.9v2.54c0,.65-.77.92-1.41.92H114.72c-.65,0-1.44-.27-1.44-.92V380.9Z" style="fill: rgb(38, 50, 56); transform-origin: 140.07px 382.63px;" id="el487kfv2rop8" class="animable"></path><g id="elv1h6ddaul1a"><path d="M166.86,380.9v2.54c0,.65-.77.92-1.41.92H114.72c-.65,0-1.44-.27-1.44-.92V380.9Z" style="fill: rgb(255, 255, 255); isolation: isolate; opacity: 0.4; transform-origin: 140.07px 382.63px;" class="animable"></path></g><g id="elvt5m4ro0hhn"><path d="M166.86,380.9v2.54c0,.65-.77.92-1.41.92H132c-.65,0-1.43-.27-1.43-.92V380.9Z" style="isolation: isolate; opacity: 0.2; transform-origin: 148.715px 382.63px;" class="animable"></path></g><path d="M175.34,354.55l-6,27.39a2.06,2.06,0,0,1-2,1.55h-33a1.33,1.33,0,0,1-1.24-1.72l6-27.18a1.88,1.88,0,0,1,2-1.34h33C175,353.25,175.54,353.65,175.34,354.55Z" style="fill: rgb(38, 50, 56); transform-origin: 154.211px 368.365px;" id="ela2rtkinz3j6" class="animable"></path><g id="el7gfnw49pu0o"><path d="M175.34,354.55l-6,27.39a2.06,2.06,0,0,1-2,1.55H135.48a1.33,1.33,0,0,1-1.25-1.72l6-27.18a1.88,1.88,0,0,1,2-1.34H174.1C175,353.25,175.54,353.65,175.34,354.55Z" style="fill: rgb(255, 255, 255); isolation: isolate; opacity: 0.4; transform-origin: 154.777px 368.365px;" class="animable"></path></g><g id="elyctf72fbr9e"><path d="M159.08,368.47h0c0,2.34-2.51,4.25-4.36,4.25s-2.93-1.91-2.41-4.25,2.36-4.18,4.17-4.25c-.53,2.35.6,4.25,2.43,4.25Z" style="isolation: isolate; opacity: 0.2; transform-origin: 155.63px 368.47px;" class="animable"></path></g><polygon points="156.69 411.54 167.49 413.32 172.68 414.18 174.19 408.82 169.5 407.39 158.04 403.9 156.69 411.54" style="fill: rgb(235, 179, 118); transform-origin: 165.44px 409.04px;" id="el9a66rrd6la" class="animable"></polygon><path d="M173.13,407.94l-2.33,6a.64.64,0,0,0,.38.83l3,1.07s4,1.72,5.24,1.17c3.74-1.61,9.25-14.78,8-16-.44-.46-1.41,0-1.92.34-1.62,1.19-5.23,4.66-6.59,5.64-1.6,1.14-4,.79-5.09.56A.64.64,0,0,0,173.13,407.94Z" style="fill: rgb(11, 230, 238); transform-origin: 179.179px 408.967px;" id="elfg5nbl4vwh8" class="animable"></path><g id="el6a07k86ph9u"><polygon points="156.69 411.54 167.49 413.32 169.5 407.39 158.04 403.9 156.69 411.54" style="isolation: isolate; opacity: 0.2; transform-origin: 163.095px 408.61px;" class="animable"></polygon></g><path d="M167.64,406.27s-44-24.76-59.25-24.06S91,396.32,97.27,404.7s17.85,10.43,17.85,10.43-7.88-11.14-6.74-14.27,5.6,1.24,5.6,1.24,27.71,8.95,52,11Z" style="fill: rgb(38, 50, 56); transform-origin: 130.808px 398.663px;" id="elsmn2fbb46i" class="animable"></path><polygon points="168.35 405.59 165.86 403.91 162.65 413.75 166.5 413.75 168.35 405.59" style="fill: rgb(11, 230, 238); transform-origin: 165.5px 408.83px;" id="el9ivibhgx3x" class="animable"></polygon><g id="elkjj8thob5l"><polygon points="168.35 405.59 165.86 403.91 162.65 413.75 166.5 413.75 168.35 405.59" style="fill: rgb(255, 255, 255); isolation: isolate; opacity: 0.6; transform-origin: 165.5px 408.83px;" class="animable"></polygon></g><path d="M120.74,370.41l-31.48,3.88A66.48,66.48,0,0,0,88,364.45a108.05,108.05,0,0,0-3.85-13.58c-1.48-4.26-3.36-9.11-5.74-14.76a7.4,7.4,0,0,1,5.1-10.32c1.24-.27,2.54-.54,3.89-.78a103,103,0,0,1,14.3-1.76c1.57-.05,3.2-.05,4.77,0,5.65.09,10.56,6,11.42,11.51a95.2,95.2,0,0,1,1.63,12.83C120.05,353.84,120.38,360.05,120.74,370.41Z" style="fill: rgb(11, 230, 238); transform-origin: 99.2348px 348.751px;" id="elfajavr5tpp5" class="animable"></path><path d="M86.42,308.79c1.82,4.45,4.38,12.69,1.77,16.12,0,0,4.28-1.19,14.23,3.39,2.21-4.17.07-5.15.07-5.15-5.38-.58-6-4.36-5.81-8Z" style="fill: rgb(206, 122, 99); transform-origin: 94.9203px 318.545px;" id="elxsv6c7pamn" class="animable"></path><path d="M100.33,327.39c-3,.81-3.38,5.53-3.38,5.53s-8-4.27-10.72-7.64a29.11,29.11,0,0,0,2.46-2S98.34,325.85,100.33,327.39Z" style="fill: rgb(255, 255, 255); transform-origin: 93.28px 328.1px;" id="eltintzejglq" class="animable"></path><path d="M103.17,326.55s2.72.38,4.13,4c-.13-6.79-3.41-7.54-3.41-7.54a3.87,3.87,0,0,0-2.8-.06A3.29,3.29,0,0,1,103.17,326.55Z" style="fill: rgb(255, 255, 255); transform-origin: 104.195px 326.633px;" id="elptkrwmvb9zi" class="animable"></path><g id="elfbscrscvane"><path d="M90.61,311.38l6.07,3.75a13.72,13.72,0,0,0,.06,2.57c-2,0-5.13-1.84-5.75-3.85A6.85,6.85,0,0,1,90.61,311.38Z" style="opacity: 0.2; transform-origin: 93.6734px 314.54px;" class="animable"></path></g><path d="M81.36,300.05c2.31,7.25,3.13,10.36,7.81,13.4,7,4.57,15.44.66,15.35-7-.09-6.91-3.85-17.62-11.81-19.12A9.75,9.75,0,0,0,81.36,300.05Z" style="fill: rgb(206, 122, 99); transform-origin: 92.6688px 301.247px;" id="elrr3lfpen9ft" class="animable"></path><path d="M91,300.11c.16.62.62,1.06,1,1s.59-.65.42-1.26-.63-1.06-1-1S90.83,299.5,91,300.11Z" style="fill: rgb(38, 50, 56); transform-origin: 91.7106px 299.98px;" id="elo8y3m6pj7hj" class="animable"></path><path d="M98.71,298.33c.17.62.63,1.06,1,1s.58-.65.42-1.26-.63-1.06-1-1S98.55,297.72,98.71,298.33Z" style="fill: rgb(38, 50, 56); transform-origin: 99.42px 298.2px;" id="el38byqv1kke2" class="animable"></path><path d="M99,297.14l1.35-.72S99.88,297.73,99,297.14Z" style="fill: rgb(38, 50, 56); transform-origin: 99.675px 296.856px;" id="elqkh8x1dgd59" class="animable"></path><path d="M96.71,300.16a18.91,18.91,0,0,0,3.25,3.51,2.55,2.55,0,0,1-2.07.84Z" style="fill: rgb(186, 77, 60); transform-origin: 98.335px 302.338px;" id="el6yaysr830m4" class="animable"></path><path d="M95,307.49a6.46,6.46,0,0,0,1-.11.17.17,0,0,0,.13-.22A.2.2,0,0,0,96,307a5.29,5.29,0,0,1-4.45-1.12.19.19,0,0,0-.27,0,.19.19,0,0,0,0,.26A5.58,5.58,0,0,0,95,307.49Z" style="fill: rgb(38, 50, 56); transform-origin: 93.6835px 306.657px;" id="elftk7eq5qhzq" class="animable"></path><path d="M88.8,296.47a.35.35,0,0,0,.25-.14,2.72,2.72,0,0,1,2.29-1.22.33.33,0,0,0,.37-.34.42.42,0,0,0-.37-.4,3.45,3.45,0,0,0-2.92,1.51.39.39,0,0,0,.11.52A.38.38,0,0,0,88.8,296.47Z" style="fill: rgb(38, 50, 56); transform-origin: 90.0373px 295.421px;" id="el1jpncbhy53s" class="animable"></path><path d="M100.79,293.64a.33.33,0,0,0,.25-.1.37.37,0,0,0,0-.52,3.92,3.92,0,0,0-3.24-1.24.33.33,0,0,0-.27.42.4.4,0,0,0,.44.31,3.14,3.14,0,0,1,2.56,1A.47.47,0,0,0,100.79,293.64Z" style="fill: rgb(38, 50, 56); transform-origin: 99.3316px 292.702px;" id="el4zuc5ecpv8f" class="animable"></path><path d="M91.25,298.92l1.35-.72S92.16,299.51,91.25,298.92Z" style="fill: rgb(38, 50, 56); transform-origin: 91.925px 298.636px;" id="el4izzo1xlhir" class="animable"></path><path d="M84,304.1s4.61-5.85,1.62-12.54c0,0,9.21-6.49,15.72,2.81,0,0-1.28-9-11.28-8.39s-18.18,16.33-4.94,23.55Z" style="fill: rgb(38, 50, 56); transform-origin: 89.7839px 297.74px;" id="elnbr00l8f3bf" class="animable"></path><path d="M80.45,306.57a6.09,6.09,0,0,0,4.22,2c2.06.06,2.47-2.06,1.37-3.88-1-1.63-3.27-3.63-5.09-2.83S79.07,305.06,80.45,306.57Z" style="fill: rgb(206, 122, 99); transform-origin: 83.0626px 305.125px;" id="elb7ly4j3iy07" class="animable"></path><path d="M103.42,298.42a.21.21,0,0,1-.19-.11c-6.77-12-17.84-6.6-18.31-6.36a.22.22,0,0,1-.2-.39c.12-.06,11.91-5.8,18.89,6.54a.22.22,0,0,1-.09.29A.19.19,0,0,1,103.42,298.42Z" style="fill: rgb(38, 50, 56); transform-origin: 94.125px 294.298px;" id="elya32bf6pdup" class="animable"></path><path d="M162.65,302.77l-.4,2a2.4,2.4,0,0,1-1.36,1.73L157.58,308a4.52,4.52,0,0,1-4.11-.2l-.78-.46c.43-3.41,3.4-6.78,3.4-6.78l.74-1.06a2,2,0,0,1,2.79-.55l2.11,1.44A2.31,2.31,0,0,1,162.65,302.77Z" style="fill: rgb(206, 122, 99); transform-origin: 157.697px 303.503px;" id="eloqigi3z554" class="animable"></path><g id="elh818r2nian"><path d="M88,364.45a108.05,108.05,0,0,0-3.85-13.58c2.73-5.45,5.45-10.08,5.45-10.08S99.34,354.78,88,364.45Z" style="opacity: 0.2; transform-origin: 88.8205px 352.62px;" class="animable"></path></g><path d="M87.16,339.84l.71,2.82c.26,1,.54,1.93.83,2.9.57,1.92,1.21,3.83,1.87,5.71S92,355,92.81,356.75a50.69,50.69,0,0,0,2.7,5.06l-.61-.69c.32.26.53.52.93.82s.72.59,1.16.9c.82.61,1.7,1.22,2.6,1.82,1.81,1.19,3.67,2.39,5.57,3.55l5.72,3.52,5.74,3.54a2.4,2.4,0,0,1-2,4.32c-2.2-.72-4.32-1.53-6.47-2.34s-4.25-1.72-6.35-2.64-4.21-1.92-6.29-3c-1-.56-2.09-1.13-3.16-1.76-.52-.29-1.08-.69-1.61-1s-1.15-.86-1.72-1.3a2.21,2.21,0,0,1-.37-.38l-.23-.31a49.23,49.23,0,0,1-3.79-5.91,64.23,64.23,0,0,1-2.92-6.18c-.86-2.09-1.61-4.21-2.27-6.35-.32-1.07-.63-2.15-.92-3.24s-.53-2.13-.77-3.37a4.8,4.8,0,0,1,9.36-2.12Z" style="fill: rgb(206, 122, 99); transform-origin: 97.6987px 357.883px;" id="eloxod8l5k2f" class="animable"></path><path d="M81.06,326.83c-5.48,3.59-5.92,9.23-3.41,20.14,3.79,2.07,13.25-.05,13.25-.05S88.53,330,81.06,326.83Z" style="fill: rgb(11, 230, 238); transform-origin: 83.5405px 337.354px;" id="elvfmzyqcegba" class="animable"></path></g><defs>     <filter id="active" height="200%">         <feMorphology in="SourceAlpha" result="DILATED" operator="dilate" radius="2"></feMorphology>                <feFlood flood-color="#32DFEC" flood-opacity="1" result="PINK"></feFlood>        <feComposite in="PINK" in2="DILATED" operator="in" result="OUTLINE"></feComposite>        <feMerge>            <feMergeNode in="OUTLINE"></feMergeNode>            <feMergeNode in="SourceGraphic"></feMergeNode>        </feMerge>    </filter>    <filter id="hover" height="200%">        <feMorphology in="SourceAlpha" result="DILATED" operator="dilate" radius="2"></feMorphology>                <feFlood flood-color="#ff0000" flood-opacity="0.5" result="PINK"></feFlood>        <feComposite in="PINK" in2="DILATED" operator="in" result="OUTLINE"></feComposite>        <feMerge>            <feMergeNode in="OUTLINE"></feMergeNode>            <feMergeNode in="SourceGraphic"></feMergeNode>        </feMerge>            <feColorMatrix type="matrix" values="0   0   0   0   0                0   1   0   0   0                0   0   0   0   0                0   0   0   1   0 "></feColorMatrix>    </filter></defs></svg>